<svg width="77" height="40" viewBox="0 0 77 40" fill="none" xmlns="http://www.w3.org/2000/svg">
<path d="M2.18359 39.4454H74.6467C75.0659 39.4454 75.4369 39.2921 75.7598 38.9856C76.0826 38.679 76.244 38.2996 76.244 37.8474C76.244 37.4049 76.0826 37.0281 75.7598 36.7169C75.4369 36.4057 75.0659 36.2501 74.6467 36.2501H2.18359C1.74072 36.2501 1.36602 36.4057 1.05949 36.7169C0.752903 37.0281 0.599609 37.4049 0.599609 37.8474C0.599609 38.2996 0.752903 38.679 1.05949 38.9856C1.36602 39.2921 1.74072 39.4454 2.18359 39.4454ZM2.18359 21.4981H74.6467C75.0659 21.4981 75.4369 21.3425 75.7598 21.0313C76.0826 20.7201 76.244 20.3432 76.244 19.9008C76.244 19.4486 76.0826 19.0692 75.7598 18.7626C75.4369 18.456 75.0659 18.3028 74.6467 18.3028H2.18359C1.74072 18.3028 1.36602 18.456 1.05949 18.7626C0.752903 19.0692 0.599609 19.4486 0.599609 19.9008C0.599609 20.3432 0.752903 20.7201 1.05949 21.0313C1.36602 21.3425 1.74072 21.4981 2.18359 21.4981ZM2.18359 3.53737H74.6467C75.0659 3.53737 75.4369 3.384 75.7598 3.07727C76.0826 2.77054 76.244 2.39593 76.244 1.95347C76.244 1.50167 76.0826 1.12237 75.7598 0.815567C75.4369 0.508834 75.0659 0.355469 74.6467 0.355469H2.18359C1.74072 0.355469 1.36602 0.508834 1.05949 0.815567C0.752903 1.12237 0.599609 1.50167 0.599609 1.95347C0.599609 2.39593 0.752903 2.77054 1.05949 3.07727C1.36602 3.384 1.74072 3.53737 2.18359 3.53737Z" fill="black"/>
</svg>
