<svg width="114" height="41" viewBox="0 0 114 41" fill="none" xmlns="http://www.w3.org/2000/svg">
<path d="M3.64734 13.6712V9.55125H0.127344V30.1513H3.64734V19.9512C3.64734 16.8712 6.52734 13.0312 10.2873 13.0312V9.55125C7.84734 9.55125 4.88734 10.9912 3.64734 13.6712ZM22.1445 27.0312C17.9045 27.0312 15.7445 24.0312 15.7445 20.0712C15.7445 16.1112 17.9045 13.0712 22.1445 13.0712C25.5445 13.0712 28.5045 16.0712 28.5445 20.0712C28.5045 24.0312 25.5445 27.0312 22.1445 27.0312ZM12.1845 20.0712C12.1845 25.6312 15.7045 30.4713 21.9845 30.4713C24.3445 30.4713 26.7845 29.3512 28.6245 26.5112V30.1513H32.1445V9.55125H28.6245V13.5912C26.8645 10.8712 24.3045 9.67125 21.9845 9.67125C15.7045 9.67125 12.1845 14.4312 12.1845 20.0712ZM48.1083 27.0712C44.6283 27.0712 41.6283 23.9912 41.6283 19.9512C41.6283 15.9512 44.6283 12.9112 48.1083 12.9112C52.2683 12.9112 54.5883 15.9512 54.5883 19.9512C54.5883 23.9912 52.2683 27.0712 48.1083 27.0712ZM38.0283 40.4313H41.5883V26.4312C42.9483 29.0312 46.0683 30.4313 48.2683 30.4313C54.5083 30.4313 58.1083 25.6312 58.1083 19.9512C58.1083 14.3512 54.5083 9.55125 48.2683 9.55125C46.1483 9.55125 42.9483 10.7512 41.5883 13.5112V9.55125H38.0283V40.4313ZM61.8433 0.191248V30.1913H65.3633V0.191248H61.8433ZM78.8986 26.9112C74.6986 26.9112 72.4186 23.8712 72.4186 19.8712C72.4186 15.9112 74.6986 12.8712 78.8986 12.8712C83.0986 12.8712 85.3386 15.9112 85.3386 19.8712C85.3386 23.8712 83.0986 26.9112 78.8986 26.9112ZM69.0986 19.8712C69.0986 25.5112 72.6586 30.3113 78.8986 30.3113C85.1786 30.3113 88.7386 25.5112 88.7386 19.8712C88.7386 14.2712 85.1786 9.43125 78.8986 9.43125C72.6586 9.43125 69.0986 14.2712 69.0986 19.8712ZM103.499 27.0712C100.019 27.0712 97.0189 23.9912 97.0189 19.9512C97.0189 15.9512 100.019 12.9112 103.499 12.9112C107.659 12.9112 109.979 15.9512 109.979 19.9512C109.979 23.9912 107.659 27.0712 103.499 27.0712ZM93.4189 40.4313H96.9789V26.4312C98.3389 29.0312 101.459 30.4313 103.659 30.4313C109.899 30.4313 113.499 25.6312 113.499 19.9512C113.499 14.3512 109.899 9.55125 103.659 9.55125C101.539 9.55125 98.3389 10.7512 96.9789 13.5112V9.55125H93.4189V40.4313Z" fill="black"/>
</svg>
